<svg id="Layer_1" data-name="Layer 1" xmlns="http://www.w3.org/2000/svg" xmlns:xlink="http://www.w3.org/1999/xlink" viewBox="0 0 1600 1600"><defs><style>.cls-1,.cls-10,.cls-11,.cls-12,.cls-13,.cls-14,.cls-15,.cls-17,.cls-19,.cls-20,.cls-21,.cls-5,.cls-8,.cls-9{stroke:#231f20;}.cls-1,.cls-13,.cls-15,.cls-16,.cls-17,.cls-18,.cls-19,.cls-2,.cls-20,.cls-21,.cls-5,.cls-8{stroke-miterlimit:10;}.cls-1,.cls-16,.cls-2,.cls-8{stroke-width:25px;}.cls-1,.cls-3{fill:url(#linear-gradient);}.cls-10,.cls-15,.cls-16,.cls-18,.cls-2,.cls-21,.cls-5,.cls-8{fill:none;}.cls-2{stroke:#fff;}.cls-10,.cls-11,.cls-12,.cls-15,.cls-16,.cls-17,.cls-18,.cls-19,.cls-2,.cls-20,.cls-21,.cls-9{stroke-linecap:round;}.cls-4{clip-path:url(#clip-path);}.cls-5{stroke-width:0.25px;}.cls-6{fill:#d6effb;}.cls-7{fill:url(#New_Gradient_Swatch_3);}.cls-9{fill:#c3996b;}.cls-10,.cls-11,.cls-12,.cls-14,.cls-9{stroke-linejoin:round;}.cls-10,.cls-11,.cls-12,.cls-13,.cls-14,.cls-15,.cls-19,.cls-20,.cls-9{stroke-width:10px;}.cls-11{fill:#808184;}.cls-12,.cls-13,.cls-14{fill:#404041;}.cls-16{stroke:url(#New_Gradient_Swatch_3-2);}.cls-17,.cls-20{fill:#fff;}.cls-17,.cls-18,.cls-21{stroke-width:15px;}.cls-18{stroke:#faaf40;}.cls-19{fill:#231f20;}</style><linearGradient id="linear-gradient" x1="344.15" y1="443.33" x2="1136.32" y2="1066.01" gradientUnits="userSpaceOnUse"><stop offset="0" stop-color="#d3eefb"/><stop offset="0.76" stop-color="#a2ddf8"/><stop offset="1" stop-color="#ab89be"/></linearGradient><clipPath id="clip-path"><circle id="SVGID" class="cls-1" cx="802.91" cy="803.93" r="389.64"/></clipPath><linearGradient id="New_Gradient_Swatch_3" x1="504.62" y1="632.57" x2="1201.92" y2="1010.57" gradientUnits="userSpaceOnUse"><stop offset="0" stop-color="#665ece"/><stop offset="0.63" stop-color="#dc5688"/><stop offset="1" stop-color="#eeba51"/></linearGradient><linearGradient id="New_Gradient_Swatch_3-2" x1="1202.02" y1="1200.96" x2="401.54" y2="400.47" xlink:href="#New_Gradient_Swatch_3"/></defs><path class="cls-2" d="M511,1137C418.43,1055.81,360,936.69,360,803.93A441.37,441.37,0,0,1,481.9,498.8"/><path class="cls-2" d="M1186.13,581.76a443.15,443.15,0,0,1-53,517.28"/><circle id="SVGID-2" data-name="SVGID" class="cls-3" cx="802.91" cy="803.93" r="389.64"/><g class="cls-4"><circle class="cls-5" cx="802.91" cy="803.93" r="389.64"/><path class="cls-6" d="M1037.1,710.9s-11.74-16.35-13.81-23,5.06-15.77,0-18.08-8.76-10.59-12-16,11.66-23,16.47-18.54-4.24,16.17-1.39,16.7,19.69,8.29,21.77,12.89-1.39,17.27,0,23,9,12.43,5.52,18.42S1037.1,710.9,1037.1,710.9Z"/><path class="cls-6" d="M1065.66,652s-12.87-8.29-12-13.82,12-5.53,12-5.53Z"/><path class="cls-7" d="M681.55,724.71c14.53,3,28.32,3.42,40.53-1.84,17.44-10.5,66-17.15,69.77-10.59s4.7,8.32-2.53,15.2c4.08,10.52,10.68,12.11,17.5,12.89q27.36,7,40.53,19.35c12.92-1.19,21.91-5.8,24.87-15.66,28.81,13.51,53.91,17.42,71.85,2.76,8.94-8.72,20.84-35.23,15.66-36.84s-26.25,3-36.85.92-34-11.75-32.24-17.5,24.05-15.74,29-18.08,61.83,9.33,62.87,0-21-24.3-21-24.3c-3.15-4.46-3-10.32-1.84-16.58.57-3.86-17.88-10.57-17.5-6.44.36,4,3,12.43-6.45,13.81s-27.64-8.29-27.64-8.29c4.35,12.05-1.51,29.28-8.29,47-13,0-24.19,1.2-28.55,6.45l4.61,9.21c-2.61,6.77-6.86,8.79-12,8.29-4.58-27-31.63-43.55-61-59,13,14.88,25.8,28,37.07,31.32.41,9.41-1.37,16.56-7.37,19.34-4.11-4.77-9.32-13.59-9.32-13.59S802.11,668.9,793,655.63l-35,2.76C736.06,672,718.61,687.65,705.15,713l-41.1-6.56,5.52-45.25s45.6,7.25,48.82-12.9S695.48,626.61,700,622.47s15.66-.92,15.66-.92l60.79-44.22s6.8-25.67,12.9-24.87,7.37,23.95,7.37,23.95l50.66-1.84s8.41-10.13,11-20.26-6.9-14.74-7.37-17.51,29.6.7,28.91-4.14S851,521.15,851,521.15s4.73-24.76,0-24.88-16.69,9.45-16.69,9.45c-4.63,18.92-6,35.76-4.49,50.77,0,0-16.58,10.71-21.19,10.71s-1.26-30.4-5.75-29.47-22.46,10.13-29.25,5.52-7.37-23.37-3.68-29.47,26.71-12.9,26.71-12.9c12.35-18.84,29.7-40.41,37.76-42.37s65.87,12.32,67.25,17.5-8.29,13.82-8.29,13.82C891.76,501,897.56,503.3,908.14,500c0,0-3.51-12.9,0-15.66s24,0,24,0-1-7.94,5.53-10.13,47,6,45.14,1.84-36.85-19-36.85-19l-11-42.72L1202.91,534v387.8L1179,826c-11.54,40.65-25.44,76.26-45.14,99.48,5.44-30.67,5.62-59.59,0-86.59-5.85-17.1-17.86-28.91-32.24-38.68-11.83-8.6-65.51-32-69.08-25.79s8.06,29.47,12,34.08,40.3,3.91,40.53,15.66-41.78,50.19-78.29,62.63c-12.43-49.34-40-90.41-75.54-127.11,23.75,60.09,47.85,116.81,72.08,145.65l38.46-5.64c-22.79,38.67-72.31,75.42-83.71,87.16s-13.47,58.38-21.42,69.09-19,13.81-30.28,24.29-12,24.87-12,24.87c-18.55,18.19-45,29.5-72.77,39.61,0,0-18.42-94.42-18.65-101.33s5.75-27.63,5.75-27.63l-22.1-34.08c8.4-12.41,8.06-25-5.53-37.77,0,0-5.76,15-14.74,8.29s-13.78-19.2-41.45-13.81c-54.46,16.13-109.15-33.39-109.15-79s10.22-69.83,39.14-92.34Q660.55,739.93,681.55,724.71Zm54.34-128.49c6.91-6.22-5.52-33-9.21-41.91s-4.1-13.53-9.67-10.14-9.8,1.44-9.67,7.37S717.93,571,717.59,581s-9-2-10,4.86-.36,19.87-.36,19.87S729,602.43,735.89,596.22Zm-62.63-2.31c2.18,4.61,27.63-10.59,27.63-16.58s-13.3-10.13-18.42-10.13S671.07,589.31,673.26,593.91ZM829.85,399.56,522.19,461.27l-95.8,164,16.05,30.56s8.82,1.57,13.43-3.84,6.7-37.86,6.7-37.86,24.62-9.24,29.22-15.57,16.58-27.17,16.58-27.17L525,538.65c29.95-36.88,82.16-67.79,140-97.18-18.62-.42-108.52,83.49-97.12,86.31C580.6,530.93,817.05,396.94,829.85,399.56Zm-129,93.95s-4.37-8.17-13.82-6.45S665,500,665,500C674.9,508.32,687.31,503.93,700.89,493.51ZM391.39,912.62s128,206.8,137.25,210,127.12,35.93,127.12,35.93c-.29,5.79-61.32-48.69-64.48-70.93-1.71-12-28.56-74.61-43.3-85.67s-37.76-8.75-50.66-17.5S451.73,914,441.13,908,391.39,912.62,391.39,912.62Zm586.76,139.1a77,77,0,0,0-25.79,17.5c-12.21,12.55-26.71,42.37-26.71,42.37C948.67,1096.31,967.91,1077.81,978.15,1051.72Z"/></g><circle id="SVGID-3" data-name="SVGID" class="cls-8" cx="802.91" cy="803.93" r="389.64"/><path class="cls-9" d="M1038.82,465.91l30.88,14.41L754.83,1142.5c-7.14,15.31-26.79,6.15-19.65-9.16Z"/><path class="cls-9" d="M1038.82,465.91s2.11-26.33,8.73-40.52,39.46-32,51.43-48.18c14.5-19.66,8.8,52.51.92,69.42s-30.2,33.69-30.2,33.69Z"/><line class="cls-10" x1="1080.43" y1="446.95" x2="1054.42" y2="482.59"/><line class="cls-10" x1="1059.16" y1="436.46" x2="1047.6" y2="477.06"/><polygon class="cls-11" points="1038.82 465.91 1004.51 541.32 1034.13 555.13 1069.7 480.32 1038.82 465.91"/><rect class="cls-12" x="576.94" y="488.49" width="11.4" height="47.49" transform="translate(-161.89 294.23) rotate(-25)"/><rect class="cls-13" x="831.8" y="1118.3" width="17.44" height="33.16" rx="1.7" transform="translate(-400.87 461.55) rotate(-25)"/><rect class="cls-14" x="603.36" y="545.15" width="11.4" height="47.49" transform="translate(-183.36 310.7) rotate(-25)"/><path class="cls-12" d="M504.91,483.28l52.39-24.43,298.89,664a5.19,5.19,0,0,1-2.54,6.84l-26.78,12.49a5.21,5.21,0,0,1-6.88-2.46Z"/><polygon class="cls-11" points="504.91 483.28 584.54 649.17 632.84 626.65 557.3 458.85 504.91 483.28"/><line class="cls-15" x1="492.76" y1="388.83" x2="503.17" y2="411.16"/><polygon class="cls-12" points="496.4 408.48 505.42 404.27 557.3 458.85 504.91 483.28 496.4 408.48"/><path class="cls-16" d="M1341.81,920.49c-51.21,232-246.48,409.25-488.17,431M1353,755.34c-20.21-248.67-204.92-450.82-445.16-497.48M750,250.11C498,272.72,296.53,464.09,256.07,710.44M750,250.11a52,52,0,1,0-.05-2.4c0,.8,0,1.6.05,2.4m50,1051.58a51.24,51.24,0,1,0,51.24,51.23A51.24,51.24,0,0,0,800,1301.69ZM249.52,852.62C273,1095.22,455,1294,689.4,1342.36m-442.77-594a51.24,51.24,0,1,0,51.24,51.24A51.24,51.24,0,0,0,246.63,748.32Zm1106.74,10.25a51.24,51.24,0,1,0,51.24,51.23A51.24,51.24,0,0,0,1353.37,758.57Z"/><path class="cls-17" d="M802,383.79s-84.29,64.93-84.29,138.86S802,661.51,802,661.51s84.28-64.94,84.28-138.86S802,383.79,802,383.79Z"/><line class="cls-18" x1="908.52" y1="522.65" x2="1004.43" y2="522.65"/><line class="cls-18" x1="890.56" y1="448.21" x2="926.48" y2="412.28"/><line class="cls-18" x1="908.52" y1="478.03" x2="953.72" y2="454.83"/><line class="cls-18" x1="890.56" y1="597.08" x2="926.48" y2="633.01"/><line class="cls-18" x1="908.52" y1="567.27" x2="953.72" y2="590.46"/><line class="cls-18" x1="697.29" y1="522.65" x2="601.38" y2="522.65"/><line class="cls-18" x1="715.26" y1="448.21" x2="679.33" y2="412.28"/><line class="cls-18" x1="697.29" y1="478.03" x2="652.09" y2="454.83"/><line class="cls-18" x1="715.26" y1="597.08" x2="679.33" y2="633.01"/><line class="cls-18" x1="697.29" y1="567.27" x2="652.09" y2="590.46"/><circle class="cls-19" cx="801.96" cy="522.65" r="83.19"/><circle class="cls-20" cx="829.65" cy="481.19" r="19.52"/><circle class="cls-20" cx="805.47" cy="517.03" r="8.81"/><circle class="cls-20" cx="792.68" cy="526.87" r="7.08"/><line class="cls-21" x1="801.96" y1="383.79" x2="801.96" y2="257.36"/><line class="cls-21" x1="801.96" y1="787.93" x2="801.96" y2="661.51"/></svg>