<svg xmlns="http://www.w3.org/2000/svg" xmlns:xlink="http://www.w3.org/1999/xlink" viewBox="0 0 750 500"><defs><style>.cls-1,.cls-11{fill:none;}.cls-2{isolation:isolate;}.cls-3{clip-path:url(#clip-path);}.cls-4{fill:url(#Degradado_sin_nombre_22);}.cls-5,.cls-6,.cls-7,.cls-8{mix-blend-mode:multiply;opacity:0.2;}.cls-5{fill:url(#linear-gradient);}.cls-6{fill:url(#linear-gradient-2);}.cls-7{fill:url(#linear-gradient-3);}.cls-8{fill:url(#linear-gradient-4);}.cls-9{fill:#f8e6cb;mix-blend-mode:overlay;}.cls-10{mix-blend-mode:soft-light;fill:url(#linear-gradient-5);}.cls-11{stroke:#d8d8d8;stroke-miterlimit:10;}</style><clipPath id="clip-path"><rect class="cls-1" width="750" height="500"/></clipPath><linearGradient id="Degradado_sin_nombre_22" x1="375" x2="375" y2="500" gradientUnits="userSpaceOnUse"><stop offset="0" stop-color="#f7ffff"/><stop offset="1" stop-color="#e3dbdb"/></linearGradient><linearGradient id="linear-gradient" x1="221.66" y1="466.93" x2="732.24" y2="466.93" gradientUnits="userSpaceOnUse"><stop offset="0" stop-color="#d1d5de"/><stop offset="1" stop-color="#dbdbdb"/></linearGradient><linearGradient id="linear-gradient-2" x1="-227.98" y1="595.42" x2="282.6" y2="595.42" xlink:href="#linear-gradient"/><linearGradient id="linear-gradient-3" x1="391.97" y1="-86.77" x2="902.55" y2="-86.77" xlink:href="#linear-gradient"/><linearGradient id="linear-gradient-4" x1="0" y1="95.26" x2="495.82" y2="95.26" xlink:href="#linear-gradient"/><linearGradient id="linear-gradient-5" x1="161.33" y1="429.05" x2="647.26" y2="429.05" xlink:href="#linear-gradient"/></defs><g class="cls-2"><g id="OBJECTS"><g class="cls-3"><rect class="cls-4" width="750" height="500"/><path class="cls-5" d="M682.48,545.29C675,523.68,677,499.94,681,477.39s9.8-45,9.5-67.89c-.5-37.39-18.42-74.24-47.68-97.52s-69.32-32.45-105.74-24c-23,5.36-44.68,17.34-68.31,18.31-24.26,1-47.31-9.72-71.19-14.1-56.7-10.41-117.47,18.12-149.19,66.25s-34.74,112.69-11.52,165.45,70.82,93.24,125.33,112,115.19,16.57,169.87-1.66c26.82-8.94,52.35-21.59,79.55-29.3s57.23-10.12,83.07,1.32l37.55-19.82C709.35,585.81,690,566.91,682.48,545.29Z"/><path class="cls-6" d="M232.84,673.78c-7.54-21.61-5.47-45.35-1.48-67.9s9.8-45,9.49-67.89c-.5-37.39-18.42-74.24-47.68-97.52s-69.31-32.45-105.73-24c-23,5.36-44.69,17.33-68.31,18.31-24.26,1-47.31-9.72-71.19-14.1-56.7-10.41-117.47,18.12-149.2,66.25S-236,599.64-212.78,652.4s70.83,93.24,125.34,112S27.74,781,82.43,762.71c26.82-8.93,52.35-21.59,79.54-29.29s57.23-10.12,83.08,1.32l37.55-19.82C259.71,714.3,240.37,695.4,232.84,673.78Z"/><path class="cls-7" d="M852.79-8.4c-7.53-21.62-5.46-45.36-1.48-67.91s9.8-45,9.5-67.89c-.5-37.39-18.42-74.24-47.68-97.52s-69.32-32.45-105.74-24c-23,5.36-44.68,17.34-68.31,18.31-24.26,1-47.31-9.72-71.19-14.1C511.2-271.9,450.42-243.37,418.7-195.24S384-82.55,407.18-29.79,478,63.45,532.51,82.19,647.7,98.76,702.38,80.53c26.82-8.94,52.35-21.59,79.55-29.3S839.16,41.11,865,52.55l37.55-19.82C879.66,32.11,860.33,13.21,852.79-8.4Z"/><path class="cls-8" d="M495.82,0A156,156,0,0,1,465.67,69.6c-31,39.84-82.29,63-132.64,59.7-5.35-.35-10.74-1-16.15-1.68-28.28-3.79-57.1-10.71-82.47,1.11-21.54,10-35.31,31.55-54.75,45.2C154.23,191.78,120,194.7,90.42,185.18s-54.63-30.45-72.94-55.56C11.15,120.94,5.55,111.74,0,102.51V0Z"/><path class="cls-9" d="M609.23,0a67.45,67.45,0,0,1-21.62,13.67c-14.61,5.65-31.08,6.73-44.34,15.06-17.47,11-25.59,32.07-30,52.21S506.89,122.3,497,140.38c-20.58,37.51-71.75,50.4-112.32,36.81-27-9.07-49.57-27.32-67.76-49.57a242.09,242.09,0,0,1-24.06-35.81c-15.64-28.25-27.11-59.36-48.56-83.49A96.2,96.2,0,0,0,235.92,0Z"/><path class="cls-9" d="M750,245.81V500H384.18A160.18,160.18,0,0,1,391,468.36c11.41-34.93,36.16-65.51,67.54-84.24a135.53,135.53,0,0,1,54.32-18.63c25.13-2.81,53.46.58,72.83-15.67C597.38,340,603,325.1,610.3,311.74c20.68-38.05,59.63-67.16,102.82-70.22A102.44,102.44,0,0,1,750,245.81Z"/><path class="cls-10" d="M647.26,500H161.33a156,156,0,0,1,9.92-40.07c11.72-29.92,35.16-58.43,67-63,13.72-2,27.2.7,40.25,5.54a47.15,47.15,0,0,0,52.48-14A84.81,84.81,0,0,1,440,370.1a127.83,127.83,0,0,1,18.58,14c16.7,14.73,31.71,31.95,52.74,38.35,21.87,6.63,45.77,0,68.18,4.45,32.85,6.57,57,36.53,66.53,68.65Q646.69,497.76,647.26,500Z"/><circle class="cls-9" cx="195.41" cy="155.8" r="34.08" transform="translate(0.35 312.04) rotate(-77.26)"/><circle class="cls-9" cx="597.53" cy="259.02" r="11.7" transform="translate(-21.6 461.03) rotate(-41.51)"/><path class="cls-9" d="M103.38,396.53a5.85,5.85,0,1,1-5.85-5.85A5.85,5.85,0,0,1,103.38,396.53Z"/><path class="cls-9" d="M659,213.59a5.85,5.85,0,1,1-5.85-5.85A5.85,5.85,0,0,1,659,213.59Z"/><path class="cls-11" d="M88.7-12.16c41.56-.05,82.76,19.09,109.53,50.89,23.21,27.58,35.17,62.8,55.08,92.84s53.54,56.4,89,49.8c24.33-4.53,43.67-23.93,55.11-45.88s16.39-46.57,22.52-70.55,13.91-48.32,29.76-67.33c20.1-24.09,52.73-37.09,83.89-33.42"/><path class="cls-11" d="M102.62-13.68A136,136,0,0,1,205.3,34c21.76,25.85,33,58.86,51.63,87s50.19,52.87,83.41,46.68c22.81-4.25,40.93-22.44,51.66-43s15.37-43.66,21.11-66.13,13-45.3,27.9-63.12c18.84-22.58,49.43-34.77,78.64-31.33"/><path class="cls-11" d="M116.54-15.2a126.88,126.88,0,0,1,95.82,44.52c20.31,24.13,30.77,54.94,48.19,81.23s46.84,49.33,77.84,43.56c21.28-4,38.2-20.94,48.21-40.14s14.34-40.74,19.7-61.72,12.17-42.27,26-58.9a84.49,84.49,0,0,1,73.39-29.24"/><path class="cls-11" d="M130.46-16.72a117.81,117.81,0,0,1,89,41.34C238.28,47,248,75.63,264.17,100s43.49,45.81,72.27,40.45c19.76-3.68,35.47-19.44,44.76-37.27s13.32-37.83,18.3-57.3S410.79,6.66,423.67-8.78a78.49,78.49,0,0,1,68.14-27.15"/><path class="cls-11" d="M144.38-18.23a108.7,108.7,0,0,1,82.11,38.15c17.41,20.67,26.37,47.07,41.3,69.6s40.13,42.28,66.7,37.33c18.24-3.4,32.74-17.95,41.31-34.4s12.29-34.91,16.89-52.89S403.11,3.34,415-10.91A72.43,72.43,0,0,1,477.89-36"/><path class="cls-11" d="M306,572.54c-6.88-25.1-11.9-52.46-2.28-76.64,12.6-31.68,47.55-49.43,81.4-53.49s67.94,2.65,101.94,5.24,70.41.34,98.44-19.08c38.86-26.94,51.62-79.44,86.69-111.17,29.24-26.45,73.38-35.17,110.48-21.83"/><path class="cls-11" d="M331.76,572.54c-6.51-23.75-11.25-49.62-2.16-72.5,11.92-30,45-46.76,77-50.6S470.88,452,503,454.39s66.61.33,93.12-18c36.76-25.49,48.83-75.15,82-105.17,27.67-25,69.42-33.27,104.52-20.65"/><path class="cls-11" d="M357.51,572.54c-6.13-22.39-10.61-46.79-2-68.36,11.23-28.26,42.41-44.09,72.6-47.71s60.6,2.36,90.93,4.67,62.8.31,87.8-17c34.67-24,46-70.85,77.32-99.15,26.09-23.6,65.46-31.38,98.55-19.48"/><path class="cls-11" d="M383.26,572.54c-5.76-21-10-44-1.91-64.22,10.56-26.55,39.84-41.42,68.21-44.82s56.93,2.22,85.42,4.39,59,.29,82.48-16c32.57-22.57,43.26-66.57,72.64-93.15,24.5-22.17,61.49-29.48,92.58-18.29"/><path class="cls-11" d="M409,572.54c-5.39-19.68-9.32-41.12-1.79-60.08,9.88-24.84,37.28-38.75,63.82-41.93s53.26,2.08,79.91,4.1,55.2.28,77.16-14.95c30.47-21.12,40.47-62.28,68-87.15C719,351.79,753.6,345,782.68,355.42"/><path class="cls-11" d="M-7.43,199.63c-5,17.49,3.92,36.39,16.88,49.15s29.56,21,44.8,30.94,30,22.57,35.76,39.82c10.26,30.69-10.69,61.93-20.68,92.71-15.12,46.57-3.34,100.87,29.72,137"/><path class="cls-11" d="M-19.29,203.24c-5,17.49,3.92,36.38,16.88,49.14s29.55,21,44.8,30.94,30,22.58,35.76,39.83c10.26,30.69-10.69,61.93-20.68,92.71-15.12,46.57-3.34,100.87,29.72,137"/><path class="cls-11" d="M-31.16,206.85c-5,17.48,3.92,36.38,16.89,49.14s29.55,21,44.8,30.94,30,22.58,35.75,39.83c10.27,30.69-10.69,61.93-20.68,92.71-15.11,46.57-3.33,100.87,29.72,137"/><path class="cls-11" d="M-43,210.46c-5,17.48,3.92,36.38,16.88,49.14s29.56,21,44.8,30.94,30,22.58,35.76,39.83c10.26,30.69-10.69,61.93-20.68,92.71C18.62,469.65,30.4,524,63.46,560.07"/><path class="cls-11" d="M575.83-186.86c2.54,18,18.41,31.63,35.44,38s35.56,7.16,53.52,10,36.58,8.4,48.88,21.8C735.55-93.2,729.14-56.14,732.55-24c5.17,48.7,38.05,93.48,83,113"/><path class="cls-11" d="M566.47-178.73c2.54,18,18.4,31.63,35.44,38s35.55,7.16,53.52,10,36.58,8.4,48.88,21.8C726.18-85.07,719.77-48,723.19-15.83c5.17,48.7,38,93.48,82.95,113"/><path class="cls-11" d="M557.11-170.6c2.53,18,18.4,31.63,35.43,38s35.56,7.16,53.52,10,36.59,8.4,48.88,21.8c21.88,23.85,15.47,60.91,18.88,93.09,5.17,48.69,38,93.48,83,113"/><path class="cls-11" d="M547.74-162.47c2.54,18,18.4,31.63,35.44,38s35.55,7.16,53.52,10,36.58,8.39,48.88,21.8C707.45-68.81,701-31.75,704.46.43c5.17,48.69,38,93.48,82.95,113"/></g></g></g></svg>