<svg id="Group_17" data-name="Group 17" xmlns="http://www.w3.org/2000/svg" xmlns:xlink="http://www.w3.org/1999/xlink" width="46.924" height="36.35" viewBox="0 0 46.924 36.35">
  <defs>
    <style>
      .cls-1 {
        fill: #fff;
      }

      .cls-2 {
        clip-path: url(#clip-path);
      }
    </style>
    <clipPath id="clip-path">
      <rect id="Rectangle_24" data-name="Rectangle 24" class="cls-1" width="46.924" height="36.349"/>
    </clipPath>
  </defs>
  <g id="Group_15" data-name="Group 15" class="cls-2">
    <path id="Path_6" data-name="Path 6" class="cls-1" d="M39.724,3.376A38.706,38.706,0,0,0,30.172.414a.144.144,0,0,0-.153.073,26.971,26.971,0,0,0-1.19,2.443,35.724,35.724,0,0,0-10.728,0A24.707,24.707,0,0,0,16.894.486a.151.151,0,0,0-.153-.073A38.61,38.61,0,0,0,7.189,3.376a.139.139,0,0,0-.063.054A39.6,39.6,0,0,0,.194,30.138a.159.159,0,0,0,.061.11,38.9,38.9,0,0,0,11.717,5.923.152.152,0,0,0,.165-.054,27.847,27.847,0,0,0,2.4-3.9.149.149,0,0,0-.081-.207,25.548,25.548,0,0,1-3.661-1.745.15.15,0,0,1-.015-.249c.246-.184.492-.376.727-.57a.144.144,0,0,1,.151-.02,27.751,27.751,0,0,0,23.582,0,.143.143,0,0,1,.153.019c.235.194.481.387.729.572a.15.15,0,0,1-.013.249,24,24,0,0,1-3.663,1.743.15.15,0,0,0-.079.209,31.252,31.252,0,0,0,2.4,3.9.149.149,0,0,0,.165.056,38.767,38.767,0,0,0,11.736-5.923.151.151,0,0,0,.061-.108A39.344,39.344,0,0,0,39.784,3.432a.123.123,0,0,0-.061-.056M15.681,24.807a4.51,4.51,0,0,1-4.217-4.729,4.486,4.486,0,0,1,4.217-4.729A4.461,4.461,0,0,1,19.9,20.078a4.486,4.486,0,0,1-4.217,4.729m15.592,0a4.51,4.51,0,0,1-4.217-4.729,4.486,4.486,0,0,1,4.217-4.729,4.461,4.461,0,0,1,4.217,4.729,4.474,4.474,0,0,1-4.217,4.729" transform="translate(0 -0.139)"/>
  </g>
</svg>
