<svg id="Group_16" data-name="Group 16" xmlns="http://www.w3.org/2000/svg" xmlns:xlink="http://www.w3.org/1999/xlink" width="71" height="55" viewBox="0 0 71 55">
  <defs>
    <style>
      .cls-1 {
        clip-path: url(#clip-path);
      }
    </style>
    <clipPath id="clip-path">
      <rect id="Rectangle_24" data-name="Rectangle 24" width="71" height="55"/>
    </clipPath>
  </defs>
  <g id="Group_15" data-name="Group 15" class="cls-1">
    <path id="Path_6" data-name="Path 6" d="M60.1,4.9A58.566,58.566,0,0,0,45.653.415a.218.218,0,0,0-.232.11,40.809,40.809,0,0,0-1.8,3.7,54.054,54.054,0,0,0-16.232,0,37.384,37.384,0,0,0-1.827-3.7.228.228,0,0,0-.232-.11A58.421,58.421,0,0,0,10.878,4.9a.211.211,0,0,0-.1.082C1.578,18.731-.943,32.144.294,45.391a.241.241,0,0,0,.092.166,58.853,58.853,0,0,0,17.729,8.962.23.23,0,0,0,.249-.081,42.135,42.135,0,0,0,3.627-5.9.225.225,0,0,0-.123-.313,38.656,38.656,0,0,1-5.539-2.64.227.227,0,0,1-.022-.377c.372-.279.745-.569,1.1-.862a.217.217,0,0,1,.229-.031,41.989,41.989,0,0,0,35.682,0,.216.216,0,0,1,.232.028c.356.293.728.586,1.1.865a.227.227,0,0,1-.019.377,36.321,36.321,0,0,1-5.542,2.637.227.227,0,0,0-.12.316,47.287,47.287,0,0,0,3.624,5.9.225.225,0,0,0,.249.084A58.658,58.658,0,0,0,70.6,45.557a.229.229,0,0,0,.093-.163A59.531,59.531,0,0,0,60.2,4.982.185.185,0,0,0,60.1,4.9M23.726,37.325c-3.5,0-6.381-3.212-6.381-7.156s2.827-7.156,6.381-7.156c3.582,0,6.437,3.24,6.381,7.156,0,3.944-2.827,7.156-6.381,7.156m23.592,0c-3.5,0-6.381-3.212-6.381-7.156s2.827-7.156,6.381-7.156c3.582,0,6.437,3.24,6.381,7.156,0,3.944-2.8,7.156-6.381,7.156"/>
  </g>
</svg>
