<svg id="instagram-seeklogo.com" xmlns="http://www.w3.org/2000/svg" width="70.763" height="70.763" viewBox="0 0 70.763 70.763">
  <defs>
    <style>
      .cls-1 {
        fill: #0a0a08;
      }
    </style>
  </defs>
  <path id="Path_9" data-name="Path 9" class="cls-1" d="M35.382,6.375c9.447,0,10.566.036,14.3.206A19.586,19.586,0,0,1,56.249,7.8a10.964,10.964,0,0,1,4.068,2.647,10.963,10.963,0,0,1,2.647,4.068,19.581,19.581,0,0,1,1.218,6.57c.17,3.731.206,4.85.206,14.3s-.036,10.566-.206,14.3a19.581,19.581,0,0,1-1.218,6.57,11.716,11.716,0,0,1-6.715,6.715,19.576,19.576,0,0,1-6.57,1.218c-3.73.17-4.849.206-14.3.206s-10.567-.036-14.3-.206a19.572,19.572,0,0,1-6.57-1.218,10.959,10.959,0,0,1-4.068-2.646A10.963,10.963,0,0,1,7.8,56.249a19.579,19.579,0,0,1-1.218-6.57c-.17-3.731-.206-4.85-.206-14.3s.036-10.566.206-14.3A19.579,19.579,0,0,1,7.8,14.515a10.962,10.962,0,0,1,2.647-4.068A10.964,10.964,0,0,1,14.515,7.8a19.582,19.582,0,0,1,6.57-1.218c3.731-.17,4.85-.206,14.3-.206m0-6.375C25.772,0,24.568.041,20.794.213a25.971,25.971,0,0,0-8.589,1.645A17.343,17.343,0,0,0,5.938,5.939a17.344,17.344,0,0,0-4.081,6.267A25.971,25.971,0,0,0,.213,20.794C.041,24.568,0,25.773,0,35.382S.041,46.2.213,49.969a25.969,25.969,0,0,0,1.645,8.589,17.345,17.345,0,0,0,4.081,6.267,17.342,17.342,0,0,0,6.267,4.081,25.967,25.967,0,0,0,8.589,1.645c3.774.172,4.979.213,14.588.213s10.814-.041,14.588-.213a25.967,25.967,0,0,0,8.589-1.645A18.091,18.091,0,0,0,68.906,58.558a25.973,25.973,0,0,0,1.645-8.589c.172-3.774.213-4.979.213-14.588s-.041-10.814-.213-14.588a25.974,25.974,0,0,0-1.645-8.589,17.343,17.343,0,0,0-4.081-6.267,17.344,17.344,0,0,0-6.267-4.081A25.971,25.971,0,0,0,49.969.213C46.2.041,44.991,0,35.382,0Zm0,17.213A18.169,18.169,0,1,0,53.551,35.382,18.169,18.169,0,0,0,35.382,17.213Zm0,29.963A11.794,11.794,0,1,1,47.176,35.382,11.794,11.794,0,0,1,35.382,47.176ZM58.514,16.495a4.246,4.246,0,1,1-4.246-4.246A4.246,4.246,0,0,1,58.514,16.495Z" transform="translate(0 0)"/>
</svg>
