<?xml version="1.0" encoding="utf-8"?>
<!-- Generator: Adobe Illustrator 26.0.1, SVG Export Plug-In . SVG Version: 6.00 Build 0)  -->
<svg version="1.1" id="Layer_1" xmlns="http://www.w3.org/2000/svg" xmlns:xlink="http://www.w3.org/1999/xlink" x="0px" y="0px"
	 viewBox="0 0 2000 2000" style="enable-background:new 0 0 2000 2000;" xml:space="preserve">
<style type="text/css">
	.st0{fill:#333333;}
</style>
<g>
	<path class="st0" d="M1930.6,509.3H69.4C31.1,509.3,0,478.2,0,439.8s31.1-69.4,69.4-69.4h1861.1c38.4,0,69.4,31.1,69.4,69.4
		S1968.9,509.3,1930.6,509.3z"/>
	<path class="st0" d="M1930.6,1069.4H69.4c-38.4,0-69.4-31.1-69.4-69.4s31.1-69.4,69.4-69.4h1861.1c38.4,0,69.4,31.1,69.4,69.4
		S1968.9,1069.4,1930.6,1069.4z"/>
	<path class="st0" d="M1930.6,1629.6H69.4c-38.4,0-69.4-31.1-69.4-69.4s31.1-69.4,69.4-69.4h1861.1c38.4,0,69.4,31.1,69.4,69.4
		S1968.9,1629.6,1930.6,1629.6z"/>
</g>
</svg>
