<svg xmlns="http://www.w3.org/2000/svg" width="45.271" height="36.791" viewBox="0 0 45.271 36.791">
  <defs>
    <style>
      .cls-1 {
        fill: #fff;
      }
    </style>
  </defs>
  <path id="Path_10" data-name="Path 10" class="cls-1" d="M45.271,5.177A18.571,18.571,0,0,1,39.937,6.64,9.316,9.316,0,0,0,44.02,1.5a18.6,18.6,0,0,1-5.9,2.254A9.3,9.3,0,0,0,22.3,12.226a26.369,26.369,0,0,1-19.144-9.7,9.3,9.3,0,0,0,2.875,12.4,9.251,9.251,0,0,1-4.207-1.162c0,.039,0,.078,0,.117a9.294,9.294,0,0,0,7.45,9.107,9.31,9.31,0,0,1-4.194.159,9.3,9.3,0,0,0,8.676,6.45A18.636,18.636,0,0,1,2.216,33.57,18.9,18.9,0,0,1,0,33.44a26.289,26.289,0,0,0,14.238,4.173c17.084,0,26.426-14.153,26.426-26.426q0-.6-.027-1.2a18.878,18.878,0,0,0,4.635-4.808" transform="translate(0 -0.822)"/>
</svg>
