<svg xmlns="http://www.w3.org/2000/svg" width="37.74" height="37.74" viewBox="0 0 37.74 37.74">
  <defs>
    <style>
      .cls-1 {
        fill: #fff;
      }
    </style>
  </defs>
  <path id="Path_9" data-name="Path 9" class="cls-1" d="M18.87,3.4c5.038,0,5.635.019,7.625.11a10.446,10.446,0,0,1,3.5.65,5.848,5.848,0,0,1,2.17,1.412,5.847,5.847,0,0,1,1.412,2.17,10.443,10.443,0,0,1,.65,3.5c.091,1.99.11,2.587.11,7.625s-.019,5.635-.11,7.625a10.443,10.443,0,0,1-.65,3.5A6.248,6.248,0,0,1,30,33.58a10.44,10.44,0,0,1-3.5.65c-1.989.091-2.586.11-7.625.11s-5.636-.019-7.625-.11a10.438,10.438,0,0,1-3.5-.65,5.845,5.845,0,0,1-2.17-1.411A5.847,5.847,0,0,1,4.16,30a10.442,10.442,0,0,1-.65-3.5c-.091-1.99-.11-2.586-.11-7.625s.019-5.635.11-7.625a10.442,10.442,0,0,1,.65-3.5,5.846,5.846,0,0,1,1.411-2.17A5.847,5.847,0,0,1,7.741,4.16a10.443,10.443,0,0,1,3.5-.65c1.99-.091,2.587-.11,7.625-.11m0-3.4C13.745,0,13.1.022,11.09.114A13.851,13.851,0,0,0,6.509.991,9.25,9.25,0,0,0,3.167,3.167,9.25,9.25,0,0,0,.991,6.509,13.851,13.851,0,0,0,.113,11.09C.022,13.1,0,13.745,0,18.87s.022,5.767.113,7.78A13.85,13.85,0,0,0,.991,31.23a9.25,9.25,0,0,0,2.176,3.342,9.249,9.249,0,0,0,3.342,2.176,13.849,13.849,0,0,0,4.581.877c2.013.092,2.655.114,7.78.114s5.767-.022,7.78-.114a13.849,13.849,0,0,0,4.581-.877,9.649,9.649,0,0,0,5.519-5.519,13.852,13.852,0,0,0,.877-4.581c.092-2.013.114-2.655.114-7.78s-.022-5.767-.114-7.78a13.853,13.853,0,0,0-.877-4.581,9.249,9.249,0,0,0-2.177-3.342A9.25,9.25,0,0,0,31.23.991,13.851,13.851,0,0,0,26.65.114C24.637.022,23.995,0,18.87,0Zm0,9.18a9.69,9.69,0,1,0,9.69,9.69A9.69,9.69,0,0,0,18.87,9.18Zm0,15.98a6.29,6.29,0,1,1,6.29-6.29A6.29,6.29,0,0,1,18.87,25.16ZM31.207,8.8a2.264,2.264,0,1,1-2.264-2.264A2.264,2.264,0,0,1,31.207,8.8Z" transform="translate(0 0)"/>
</svg>
