<svg xmlns="http://www.w3.org/2000/svg" width="76.347" height="62.046" viewBox="0 0 76.347 62.046">
  <g id="twitter-seeklogo.com" transform="translate(0 -0.822)">
    <path id="Path_10" data-name="Path 10" d="M76.347,8.167a31.318,31.318,0,0,1-9,2.466,15.71,15.71,0,0,0,6.887-8.666,31.367,31.367,0,0,1-9.946,3.8A15.678,15.678,0,0,0,37.6,20.055,44.469,44.469,0,0,1,5.315,3.689,15.68,15.68,0,0,0,10.163,24.6a15.6,15.6,0,0,1-7.095-1.959c0,.065,0,.131,0,.2A15.673,15.673,0,0,0,15.631,38.2a15.7,15.7,0,0,1-7.074.268A15.679,15.679,0,0,0,23.19,49.344,31.429,31.429,0,0,1,3.737,56.049,31.867,31.867,0,0,1,0,55.831a44.335,44.335,0,0,0,24.011,7.037C52.822,62.868,68.577,39,68.577,18.3q0-1.019-.045-2.026a31.837,31.837,0,0,0,7.816-8.108"/>
  </g>
</svg>
