<?xml version="1.0" encoding="utf-8"?>
<!-- Generator: Adobe Illustrator 26.0.1, SVG Export Plug-In . SVG Version: 6.00 Build 0)  -->
<svg version="1.1" id="Layer_1" xmlns="http://www.w3.org/2000/svg" xmlns:xlink="http://www.w3.org/1999/xlink" x="0px" y="0px"
	 viewBox="0 0 2531 2526.3" style="enable-background:new 0 0 2531 2526.3;" xml:space="preserve">
<style type="text/css">
	.st0{fill:#231F20;stroke:#231F20;stroke-width:100;stroke-miterlimit:10;}
</style>
<path class="st0" d="M2479,1261.3c0-2.2,0-4.4,0-6.6c-0.7-131.1-22.2-259.9-63.9-382.9c-34-100.2-80.8-195.3-139.7-283.3l1.3-0.6
	l-35.8-48.3c-55-74.2-118.5-142.2-188.9-202.1c-70.7-60.2-148.2-112.3-230.5-154.7c-5.2-2.7-10.5-5.4-15.8-8s-10.6-5.2-15.9-7.8
	c-2.7-1.3-5.3-2.5-8-3.8c-50.6-23.8-102.9-44.1-156.3-60.7c-22.5-7-45.2-13.3-68-18.9c-17.5-4.3-35.2-8.3-52.9-11.8
	c-0.1,0-0.2,0-0.3-0.1c-0.2,0-0.4-0.1-0.6-0.1c-76.6-15.2-154.9-23.1-233.6-23.3c-0.1,0-0.1,0-0.2,0c-2.8,0-5.7,0-8.4,0h-0.1
	c-8.7,0-17.5,0.2-26.2,0.4c-69.7,1.7-139,9.4-206.9,22.9c-18.2,3.6-36.3,7.6-54.3,12.1c-91.4,22.6-180.2,55.9-264,99.2
	c-82.3,42.5-159.8,94.5-230.5,154.7c-70.3,59.9-133.9,127.9-188.9,202.1L254.8,588l1.3,0.6c-58.8,88-105.7,183.1-139.7,283.3
	C74.7,995,53.2,1123.8,52.5,1254.8c0,2.2,0,4.4,0,6.6c0,131.9,21.1,261.7,62.6,385.6c33.9,101.1,80.8,196.9,139.9,285.7l-1.3,0.6
	l35.6,48.2c1.2,1.6,2.5,3.3,3.7,4.9c2.2,3,4.5,6,6.7,9c0.7,1,1.5,1.9,2.2,2.9c2.8,3.6,5.6,7.3,8.4,10.9c0.6,0.7,1.1,1.4,1.7,2.1
	c3,3.9,6.1,7.7,9.2,11.5c0.4,0.5,0.9,1,1.3,1.6c3.2,4,6.5,8,9.7,11.9c0.5,0.6,1,1.2,1.6,1.9c3.2,3.8,6.4,7.6,9.6,11.4
	c0.5,0.6,1.1,1.2,1.6,1.8c3.3,3.8,6.5,7.6,9.8,11.3c0.5,0.6,1.1,1.2,1.7,1.9c3.3,3.7,6.6,7.4,9.9,11.1c0.6,0.6,1.2,1.3,1.8,1.9
	c3.3,3.6,6.6,7.3,10,10.9c0.6,0.7,1.3,1.3,1.9,2c3.3,3.6,6.7,7.1,10.1,10.6c0.7,0.7,1.3,1.4,2,2.1c3.4,3.5,6.7,7,10.1,10.4
	c0.7,0.7,1.4,1.4,2.1,2.1c3.4,3.4,6.8,6.8,10.2,10.2c0.7,0.7,1.4,1.4,2.2,2.1c3.4,3.4,6.9,6.7,10.3,10c0.7,0.7,1.5,1.4,2.2,2.1
	c3.5,3.3,6.9,6.6,10.4,9.8c0.8,0.7,1.6,1.4,2.3,2.1c3.5,3.2,7,6.4,10.5,9.6c0.8,0.7,1.6,1.5,2.5,2.2c3.5,3.1,7,6.3,10.5,9.4
	c0.8,0.7,1.7,1.4,2.5,2.2c3.4,3,6.8,6,10.3,8.9c0.1,0.1,0.3,0.2,0.4,0.3l0.1,0.1c0.9,0.7,1.8,1.5,2.6,2.2c3.5,3,7.1,6,10.6,8.9
	c1,0.9,2.1,1.7,3.1,2.6c3.4,2.8,6.9,5.7,10.4,8.5c1.2,1,2.4,1.9,3.6,2.8c3.4,2.7,6.7,5.4,10.1,8c1.3,1,2.7,2.1,4,3.1
	c3.3,2.5,6.5,5,9.8,7.5c1.5,1.1,2.9,2.2,4.4,3.3c3.2,2.4,6.4,4.8,9.6,7.1c1.6,1.2,3.2,2.3,4.8,3.5c3.1,2.3,6.2,4.5,9.4,6.8
	c1.7,1.2,3.4,2.4,5.1,3.6c3.1,2.2,6.1,4.3,9.2,6.5c1.8,1.2,3.6,2.4,5.4,3.7c3,2.1,6,4.1,9,6.2c1.9,1.3,3.8,2.5,5.7,3.7
	c3,2,5.9,3.9,8.9,5.9c2,1.3,3.9,2.5,5.9,3.8c2.9,1.9,5.8,3.8,8.8,5.6c2,1.3,4.1,2.6,6.2,3.8c2.9,1.8,5.8,3.6,8.6,5.4
	c2.1,1.3,4.3,2.6,6.4,3.9c2.8,1.7,5.6,3.4,8.5,5.1c2.2,1.3,4.5,2.6,6.7,3.9c2.8,1.6,5.6,3.3,8.4,4.9c2.3,1.3,4.6,2.6,6.9,3.9
	c2.8,1.6,5.5,3.1,8.3,4.7c2.4,1.3,4.7,2.6,7.1,3.9c2.7,1.5,5.4,3,8.2,4.4c2.5,1.3,4.9,2.6,7.4,3.9c2.5,1.3,4.9,2.6,7.4,3.9
	c0.3,0.1,0.5,0.3,0.8,0.4c0.1,0.1,0.2,0.1,0.4,0.2c1.1,0.6,2.2,1.1,3.3,1.7c1.3,0.7,2.6,1.4,4,2c1.4,0.7,2.7,1.4,4.1,2.1
	c1.3,0.6,2.5,1.3,3.8,1.9c1.4,0.7,2.9,1.4,4.3,2.1c1.2,0.6,2.4,1.2,3.6,1.8c1.5,0.7,3,1.5,4.5,2.2c1.2,0.6,2.3,1.1,3.5,1.7
	c1.5,0.7,3.1,1.5,4.6,2.2c1.1,0.5,2.2,1.1,3.4,1.6c1.6,0.7,3.2,1.5,4.8,2.2c1.1,0.5,2.2,1,3.2,1.5c1.6,0.8,3.3,1.5,4.9,2.2
	c1,0.5,2.1,1,3.1,1.4c1.7,0.8,3.3,1.5,5,2.3c1,0.5,2,0.9,3.1,1.4c1.7,0.8,3.4,1.5,5.2,2.3c1,0.4,2,0.9,2.9,1.3
	c1.8,0.8,3.5,1.5,5.3,2.3c0.9,0.4,1.9,0.8,2.8,1.2c1.8,0.8,3.6,1.5,5.4,2.3c0.9,0.4,1.8,0.8,2.7,1.2c1.8,0.8,3.7,1.5,5.5,2.3
	c0.9,0.4,1.8,0.7,2.7,1.1c1.9,0.8,3.7,1.5,5.6,2.3c0.9,0.4,1.7,0.7,2.6,1.1c1.9,0.8,3.8,1.5,5.7,2.3c0.8,0.3,1.7,0.7,2.5,1
	c1.9,0.8,3.8,1.5,5.8,2.2c0.8,0.3,1.6,0.6,2.5,1c2,0.8,3.9,1.5,5.9,2.2c0.8,0.3,1.6,0.6,2.4,0.9c2,0.7,4,1.5,6,2.2
	c0.8,0.3,1.5,0.6,2.3,0.9c2,0.7,4,1.5,6.1,2.2c0.7,0.3,1.5,0.5,2.2,0.8c2,0.7,4.1,1.5,6.2,2.2c0.7,0.3,1.4,0.5,2.2,0.8
	c2.1,0.7,4.1,1.4,6.2,2.2c0.7,0.2,1.4,0.5,2.1,0.7c2.1,0.7,4.2,1.4,6.3,2.1c0.7,0.2,1.4,0.5,2.1,0.7c2.1,0.7,4.3,1.4,6.4,2.1
	c0.7,0.2,1.3,0.4,2,0.7c2.2,0.7,4.3,1.4,6.5,2.1c0.6,0.2,1.3,0.4,1.9,0.6c2.2,0.7,4.4,1.4,6.6,2.1c0.6,0.2,1.2,0.4,1.8,0.6
	c2.2,0.7,4.5,1.4,6.7,2.1c0.6,0.2,1.1,0.3,1.7,0.5c2.3,0.7,4.6,1.4,6.9,2.1c0.5,0.2,1.1,0.3,1.6,0.5c2.3,0.7,4.7,1.4,7,2
	c0.5,0.1,1,0.3,1.5,0.4c2.4,0.7,4.8,1.4,7.1,2c0.4,0.1,0.9,0.3,1.3,0.4c2.4,0.7,4.9,1.3,7.3,2c0.4,0.1,0.8,0.2,1.2,0.3
	c2.5,0.7,5,1.3,7.5,2c0.3,0.1,0.7,0.2,1,0.3c2.5,0.7,5.1,1.3,7.7,2c0.3,0.1,0.6,0.2,0.9,0.2c2.6,0.7,5.2,1.3,7.9,2
	c0.2,0,0.4,0.1,0.5,0.1h0.1c0.6,0.1,1.2,0.3,1.8,0.4c2.1,0.5,4.3,1,6.4,1.6c0.2,0,0.4,0.1,0.6,0.1c2.8,0.7,5.7,1.3,8.5,2
	c0.1,0,0.2,0,0.3,0.1c2.9,0.7,5.8,1.3,8.7,2h0.1c86.8,19.4,176,29.2,265.7,29.2s178.9-9.8,265.7-29.2l0,0c2.9-0.7,5.9-1.3,8.8-2
	c0.1,0,0.1,0,0.2,0c2.9-0.7,5.7-1.3,8.6-2c0.1,0,0.3-0.1,0.4-0.1c2.2-0.5,4.4-1,6.6-1.6c0.6-0.1,1.2-0.3,1.8-0.5h0.1
	c0.1,0,0.3-0.1,0.4-0.1c2.7-0.7,5.4-1.3,8-2c0.2-0.1,0.5-0.1,0.7-0.2c2.6-0.7,5.2-1.3,7.8-2c0.3-0.1,0.6-0.2,0.9-0.2
	c2.5-0.7,5.1-1.3,7.6-2c0.4-0.1,0.7-0.2,1.1-0.3c2.5-0.7,5-1.4,7.4-2c0.4-0.1,0.8-0.2,1.2-0.3c2.4-0.7,4.8-1.4,7.3-2.1
	c0.5-0.1,0.9-0.3,1.4-0.4c2.4-0.7,4.7-1.4,7.1-2.1c0.5-0.1,1-0.3,1.5-0.4c2.3-0.7,4.6-1.4,7-2.1c0.5-0.2,1.1-0.3,1.6-0.5
	c2.3-0.7,4.5-1.4,6.8-2.1c0.6-0.2,1.2-0.4,1.7-0.5c2.2-0.7,4.5-1.4,6.7-2.1c0.6-0.2,1.2-0.4,1.8-0.6c2.2-0.7,4.4-1.4,6.6-2.1
	c0.6-0.2,1.3-0.4,1.9-0.6c2.2-0.7,4.3-1.4,6.5-2.1c0.7-0.2,1.3-0.4,2-0.7c2.1-0.7,4.3-1.4,6.4-2.2c0.7-0.2,1.4-0.5,2.1-0.7
	c2.1-0.7,4.2-1.5,6.3-2.2c0.7-0.2,1.4-0.5,2.1-0.7c2.1-0.7,4.1-1.5,6.2-2.2c0.7-0.3,1.5-0.5,2.2-0.8c2-0.7,4.1-1.5,6.1-2.2
	c0.8-0.3,1.5-0.6,2.3-0.8c2-0.7,4-1.5,6-2.2c0.8-0.3,1.5-0.6,2.3-0.9c2-0.8,4-1.5,5.9-2.3c0.8-0.3,1.6-0.6,2.4-0.9
	c2-0.8,3.9-1.5,5.9-2.3c0.8-0.3,1.6-0.6,2.4-1c1.9-0.8,3.9-1.5,5.8-2.3c0.8-0.3,1.7-0.7,2.5-1c1.9-0.8,3.8-1.5,5.7-2.3
	c0.8-0.3,1.7-0.7,2.5-1c1.9-0.8,3.8-1.6,5.7-2.3c0.9-0.4,1.7-0.7,2.6-1.1c1.9-0.8,3.7-1.6,5.6-2.4c0.9-0.4,1.8-0.8,2.6-1.1
	c1.8-0.8,3.7-1.6,5.5-2.4c0.9-0.4,1.8-0.8,2.7-1.2c1.8-0.8,3.6-1.6,5.4-2.4c0.9-0.4,1.8-0.8,2.8-1.2c1.8-0.8,3.5-1.6,5.3-2.4
	c0.9-0.4,1.9-0.9,2.8-1.3c1.8-0.8,3.5-1.6,5.2-2.4c1-0.4,1.9-0.9,2.9-1.3c1.7-0.8,3.4-1.6,5.2-2.4c1-0.5,1.9-0.9,2.9-1.4
	c1.7-0.8,3.4-1.6,5.1-2.4c1-0.5,2-1,3-1.4c1.7-0.8,3.3-1.6,5-2.4c1-0.5,2-1,3-1.5c1.6-0.8,3.3-1.6,4.9-2.4c1-0.5,2.1-1,3.1-1.6
	c1.6-0.8,3.2-1.6,4.8-2.4c1.1-0.5,2.1-1.1,3.2-1.6c1.3-0.7,2.7-1.4,4-2.1c0.1-0.1,0.3-0.2,0.4-0.2c0.2-0.1,0.5-0.2,0.7-0.4
	c2.3-1.2,4.6-2.4,6.9-3.6c2.7-1.4,5.3-2.8,8-4.2c2.6-1.4,5.2-2.8,7.9-4.3c2.5-1.3,4.9-2.7,7.4-4c2.8-1.5,5.5-3.1,8.2-4.6
	c2.3-1.3,4.6-2.6,6.9-3.9c2.8-1.6,5.7-3.3,8.5-4.9c2.2-1.3,4.4-2.5,6.5-3.8c2.9-1.7,5.8-3.5,8.7-5.2c2.1-1.3,4.2-2.5,6.2-3.8
	c3-1.8,5.9-3.7,8.8-5.5c2-1.2,4-2.5,6-3.7c3-1.9,6-3.8,9-5.7c1.9-1.2,3.8-2.4,5.7-3.7c3-2,6-4,9-6c1.8-1.2,3.7-2.4,5.5-3.7
	c3-2,6-4.1,9-6.2c1.8-1.2,3.6-2.4,5.4-3.7c3-2.1,6.1-4.3,9.1-6.4c1.7-1.2,3.5-2.4,5.2-3.6c3.1-2.2,6.1-4.4,9.2-6.7
	c1.6-1.2,3.3-2.4,4.9-3.6c3.1-2.3,6.2-4.6,9.3-6.9c1.6-1.2,3.1-2.3,4.7-3.5c3.2-2.4,6.3-4.8,9.4-7.2c1.5-1.1,3-2.3,4.4-3.4
	c3.2-2.5,6.4-5.1,9.6-7.6c1.4-1.1,2.7-2.2,4.1-3.2c3.3-2.7,6.6-5.4,9.9-8.1c1.2-1,2.4-2,3.6-3c3.5-2.9,6.9-5.8,10.4-8.7
	c0.9-0.8,1.9-1.6,2.9-2.4l0.1-0.1c0.1-0.1,0.3-0.2,0.4-0.3c3.4-2.9,6.8-5.9,10.2-8.8c0.9-0.8,1.7-1.5,2.6-2.2
	c3.5-3.1,7-6.2,10.5-9.4c0.8-0.7,1.6-1.5,2.5-2.2c3.5-3.2,7-6.4,10.5-9.7c0.8-0.7,1.5-1.4,2.3-2.1c3.5-3.3,7-6.6,10.5-9.9
	c0.7-0.7,1.4-1.3,2.1-2c3.5-3.4,7-6.8,10.5-10.2c0.7-0.6,1.3-1.3,2-1.9c3.5-3.5,7-6.9,10.4-10.4c0.6-0.6,1.2-1.2,1.9-1.9
	c3.5-3.6,7.1-7.2,10.6-10.9c0.5-0.5,1-1.1,1.6-1.6c3.5-3.7,7-7.4,10.5-11.1c0.5-0.5,1-1,1.5-1.5c3.5-3.8,7-7.5,10.4-11.3
	c0.4-0.5,0.9-1,1.4-1.5c3.5-3.9,7.1-7.8,10.5-11.8c0.3-0.4,0.7-0.8,1-1.2c3.5-4,7-8,10.5-12c0.3-0.4,0.6-0.7,0.9-1.1
	c3.6-4.2,7.2-8.4,10.7-12.7c0.2-0.2,0.3-0.4,0.5-0.6c3.5-4.2,6.9-8.4,10.3-12.6c0.2-0.3,0.5-0.6,0.7-0.9c3.5-4.4,7-8.7,10.5-13.2
	c0.1-0.1,0.2-0.3,0.4-0.4c3.2-4.1,6.4-8.2,9.5-12.3c0.4-0.5,0.8-1,1.1-1.5c2.4-3.2,4.8-6.4,7.2-9.6c1.1-1.4,2.2-2.9,3.3-4.3
	l35.6-48.2l-1.3-0.6c59.1-88.8,106.1-184.6,139.9-285.7C2457.9,1523,2479,1393.2,2479,1261.3z M2123.6,1972.5
	c-2.8,3.4-5.7,6.8-8.6,10.2c-0.5,0.6-1,1.2-1.5,1.8c-2.9,3.4-5.8,6.7-8.7,10c-0.5,0.6-1,1.2-1.5,1.8c-2.9,3.3-5.9,6.6-8.8,9.9
	c-0.5,0.5-1,1.1-1.5,1.6c-3,3.3-6,6.6-9.1,9.9c-0.4,0.5-0.9,0.9-1.3,1.4c-3,3.2-6,6.5-9.1,9.6c-0.4,0.4-0.8,0.9-1.3,1.3
	c-2.9,3.1-5.9,6.1-8.9,9.2c-0.5,0.5-1,1.1-1.6,1.6c-3,3-6,6-9,9c-0.7,0.7-1.4,1.4-2.2,2.1c-2.9,2.8-5.8,5.7-8.7,8.5
	c-0.9,0.8-1.7,1.7-2.6,2.5c-2.8,2.7-5.7,5.4-8.5,8.1c-1,0.9-1.9,1.8-2.9,2.7c-2.8,2.6-5.6,5.2-8.4,7.8c-1.1,1-2.1,1.9-3.2,2.9
	c-2.8,2.5-5.5,5-8.3,7.5c-1.1,1-2.3,2-3.4,3c-2.8,2.4-5.5,4.8-8.3,7.2c-1.2,1-2.4,2-3.5,3c-2.4,2.1-4.8,4.1-7.2,6.2
	c-1.6,1.3-3.1,2.6-4.7,3.9c-2.2,1.8-4.3,3.6-6.5,5.4c-1.8,1.5-3.7,3-5.5,4.5c-2.1,1.7-4.1,3.3-6.2,5c-1.9,1.5-3.9,3.1-5.8,4.6
	c-2.1,1.6-4.1,3.2-6.2,4.9c-1.9,1.4-3.7,2.9-5.6,4.3c-2.2,1.7-4.4,3.4-6.7,5.1c-1.7,1.3-3.3,2.5-5,3.7c-2.5,1.8-4.9,3.7-7.4,5.5
	c-1.8,1.3-3.5,2.6-5.3,3.8c-2.4,1.8-4.9,3.5-7.3,5.3c-1.8,1.3-3.7,2.6-5.5,3.9c-1.9,1.3-3.8,2.7-5.7,4c-2.4,1.7-4.8,3.3-7.2,5
	c-1.5,1-3,2-4.5,3c-2.9,1.9-5.7,3.9-8.6,5.8c-1.3,0.9-2.6,1.7-4,2.6c-3.1,2-6.2,4-9.3,6c-1.2,0.8-2.5,1.6-3.7,2.4
	c-3.2,2-6.4,4.1-9.7,6.1c-1.2,0.7-2.3,1.5-3.5,2.2c-3.3,2.1-6.7,4.1-10,6.1c-1.1,0.7-2.2,1.3-3.3,2c-3.5,2.1-6.9,4.1-10.4,6.2
	c-1,0.6-2,1.2-3,1.8c-3.8,2.2-7.7,4.4-11.6,6.6c-0.7,0.4-1.3,0.8-2,1.1c-2.3,1.3-4.6,2.6-6.9,3.8c-0.3,0.1-0.5,0.3-0.8,0.4
	c-4.3,2.4-8.7,4.7-13,7.1c-0.9,0.5-1.7,0.9-2.6,1.4c-3.8,2-7.5,4-11.3,5.9c-1,0.5-2,1-3,1.5c-3.7,1.9-7.4,3.7-11,5.6
	c-1,0.5-2.1,1-3.1,1.5c-3.6,1.8-7.3,3.6-10.9,5.3c-1.1,0.5-2.2,1-3.3,1.6c-3.6,1.7-7.2,3.4-10.9,5.1c-1.1,0.5-2.3,1.1-3.4,1.6
	c-3.6,1.6-7.2,3.3-10.8,4.9c-1.2,0.5-2.4,1.1-3.6,1.6c-3.5,1.6-7,3.1-10.5,4.6c-1.3,0.6-2.6,1.1-3.9,1.7c-3,1.3-6,2.5-9,3.8
	c-1.8,0.8-3.7,1.5-5.5,2.3c-2.3,0.9-4.5,1.8-6.8,2.8c-2.2,0.9-4.3,1.7-6.5,2.6c-2.7,1.1-5.3,2.1-8,3.1c-1.8,0.7-3.6,1.4-5.4,2.1
	c-3,1.2-6.1,2.3-9.1,3.4c-1.8,0.7-3.6,1.3-5.4,2c-3,1.1-6.1,2.2-9.2,3.3c-1.8,0.7-3.7,1.3-5.5,1.9c-3,1-6,2.1-8.9,3.1
	c-2,0.7-3.9,1.3-5.9,2c-2.8,0.9-5.6,1.9-8.4,2.8c-2.2,0.7-4.3,1.4-6.5,2.1c-2.4,0.8-4.9,1.6-7.3,2.3c-2.5,0.8-5.1,1.6-7.6,2.3
	c-1.9,0.6-3.7,1.1-5.6,1.7c-3.1,0.9-6.3,1.9-9.4,2.8c-1.8,0.5-3.6,1-5.5,1.6c-3.2,0.9-6.4,1.8-9.7,2.7c-1.8,0.5-3.5,1-5.3,1.4
	c-3.3,0.9-6.6,1.8-9.9,2.6c-0.6,0.2-1.2,0.3-1.9,0.5c17.2-18.1,34-38,50.3-59.6c76.9-102.1,141.1-241,187.2-404.3
	c131.5,23.4,250.1,55.7,346.6,94.7C2124,1971.9,2123.8,1972.2,2123.6,1972.5z M980,2337.8c-1.8-0.5-3.6-1-5.4-1.5
	c-3.2-0.9-6.4-1.8-9.6-2.7c-1.9-0.5-3.7-1.1-5.6-1.6c-3.1-0.9-6.2-1.8-9.3-2.7c-1.9-0.6-3.8-1.1-5.7-1.7c-2.4-0.7-4.9-1.5-7.3-2.3
	c-2.6-0.8-5.1-1.6-7.7-2.4c-2.1-0.7-4.2-1.3-6.2-2c-2.9-0.9-5.8-1.9-8.7-2.9c-1.9-0.6-3.8-1.3-5.7-1.9c-3.1-1-6.1-2.1-9.2-3.2
	c-1.8-0.6-3.5-1.2-5.3-1.9c-3.2-1.1-6.3-2.3-9.4-3.4c-1.7-0.6-3.4-1.2-5.1-1.9c-3.2-1.2-6.3-2.4-9.5-3.6c-1.7-0.6-3.3-1.3-5-1.9
	c-3-1.2-6-2.4-9-3.5c-1.8-0.7-3.6-1.4-5.4-2.2c-2.3-0.9-4.6-1.9-6.9-2.8c-1.4-0.6-2.8-1.2-4.2-1.8c-3.4-1.4-6.9-2.9-10.3-4.3
	c-1.2-0.5-2.3-1-3.5-1.5c-3.7-1.6-7.3-3.2-11-4.8c-1.1-0.5-2.2-1-3.2-1.4c-3.7-1.7-7.4-3.4-11.1-5.1c-1-0.5-2.1-1-3.1-1.4
	c-3.7-1.7-7.5-3.5-11.2-5.3c-1-0.5-2-1-3-1.4c-3.8-1.8-7.5-3.6-11.3-5.5c-0.9-0.5-1.9-0.9-2.8-1.4c-3.8-1.9-7.6-3.8-11.4-5.8
	c-0.9-0.4-1.7-0.9-2.6-1.3c-3.9-2-7.9-4.1-11.8-6.2c-0.7-0.4-1.4-0.7-2.1-1.1c-7-3.7-13.9-7.5-20.8-11.4c-0.3-0.2-0.6-0.4-1-0.5
	c-4.2-2.4-8.4-4.8-12.6-7.2c-0.9-0.5-1.7-1-2.6-1.5c-3.6-2.1-7.3-4.3-10.9-6.4c-1-0.6-2-1.2-3-1.8c-3.5-2.1-6.9-4.2-10.4-6.3
	c-1.1-0.7-2.2-1.3-3.2-2c-3.3-2.1-6.7-4.2-10-6.3c-1.1-0.7-2.3-1.5-3.4-2.2c-3.2-2.1-6.4-4.1-9.5-6.2c-1.2-0.8-2.5-1.6-3.7-2.4
	c-3-2-6-4-9-6c-1.4-0.9-2.8-1.9-4.1-2.8c-2.6-1.8-5.2-3.5-7.7-5.3c-1.8-1.2-3.5-2.4-5.2-3.7c-1.9-1.3-3.8-2.7-5.7-4
	c-2.4-1.7-4.8-3.4-7.2-5.2c-1.8-1.3-3.6-2.6-5.4-3.9c-2.4-1.8-4.9-3.6-7.3-5.4c-1.7-1.3-3.4-2.6-5.1-3.8c-2.1-1.6-4.2-3.2-6.3-4.8
	c-2-1.5-3.9-3-5.9-4.5s-4-3.1-6-4.7c-2-1.6-4-3.2-6-4.8s-4-3.2-6-4.8c-1.9-1.5-3.8-3.1-5.7-4.7c-2.1-1.7-4.2-3.5-6.3-5.2
	c-1.6-1.4-3.3-2.7-4.9-4.1c-2.4-2-4.7-4-7-6c-1.2-1-2.4-2.1-3.6-3.1c-2.7-2.4-5.5-4.8-8.2-7.2c-1.2-1-2.3-2-3.5-3.1
	c-2.8-2.5-5.5-4.9-8.2-7.4c-1.1-1-2.2-2-3.3-3c-2.8-2.5-5.6-5.1-8.3-7.7c-1-0.9-2-1.9-3-2.8c-2.8-2.7-5.6-5.3-8.4-8
	c-0.9-0.9-1.8-1.7-2.7-2.6c-2.9-2.8-5.8-5.6-8.6-8.4c-0.7-0.7-1.5-1.5-2.2-2.2c-3-3-6-6-8.9-9c-0.5-0.6-1.1-1.1-1.6-1.7
	c-2.9-3-5.9-6-8.8-9.1c-0.4-0.5-0.9-0.9-1.3-1.4c-3-3.2-6-6.4-9-9.6c-0.4-0.5-0.9-1-1.3-1.4c-3-3.3-6-6.6-9-9.9
	c-0.5-0.6-1-1.1-1.5-1.7c-3-3.3-5.9-6.6-8.8-9.9c-0.5-0.6-1.1-1.2-1.6-1.8c-2.9-3.3-5.8-6.6-8.6-10c-0.5-0.6-1-1.2-1.5-1.8
	c-2.9-3.4-5.7-6.8-8.6-10.2c-0.2-0.3-0.4-0.5-0.7-0.8c96.5-39,215.1-71.4,346.6-94.7c46.1,163.3,110.4,302.2,187.2,404.3
	c16.3,21.6,33.1,41.5,50.3,59.6c-0.6-0.2-1.3-0.3-1.9-0.5C986.5,2339.5,983.2,2338.6,980,2337.8z M409.5,548.4
	c2.9-3.5,5.8-6.9,8.7-10.3c0.5-0.6,0.9-1.1,1.4-1.7c2.9-3.4,5.9-6.9,8.9-10.3c0.4-0.5,0.8-1,1.3-1.4c3-3.5,6.1-6.9,9.2-10.4
	c0.3-0.4,0.6-0.7,1-1.1c3.2-3.6,6.4-7.1,9.7-10.6c0.1-0.1,0.3-0.3,0.4-0.4c3.3-3.6,6.6-7.1,9.9-10.6c0.1-0.2,0.3-0.3,0.4-0.5
	c3.3-3.4,6.6-6.9,9.9-10.3c0.3-0.3,0.7-0.7,1-1c3.2-3.3,6.4-6.5,9.7-9.8c0.4-0.4,0.9-0.9,1.3-1.3c3.2-3.2,6.4-6.3,9.6-9.5
	c0.5-0.5,1-1,1.5-1.4c3.2-3.1,6.4-6.2,9.7-9.2c0.5-0.5,1-1,1.5-1.4c3.3-3.1,6.5-6.1,9.8-9.1c0.5-0.4,1-0.9,1.4-1.3
	c3.3-3.1,6.7-6.1,10.1-9.1c0.4-0.3,0.8-0.7,1.2-1c3.5-3.1,7-6.2,10.5-9.2c0.2-0.2,0.5-0.4,0.7-0.6c7.3-6.4,14.8-12.6,22.3-18.8
	c0.2-0.2,0.5-0.4,0.7-0.6c3.6-2.9,7.2-5.9,10.8-8.8c0.4-0.3,0.8-0.6,1.2-1c3.5-2.8,7.1-5.6,10.6-8.4c0.5-0.4,1-0.8,1.5-1.2
	c3.5-2.7,7-5.4,10.6-8.1c0.5-0.4,1.1-0.8,1.6-1.2c3.5-2.7,7.1-5.3,10.7-7.9c0.5-0.4,1-0.8,1.6-1.1c3.6-2.6,7.2-5.3,10.9-7.9
	c0.5-0.3,0.9-0.7,1.4-1c3.7-2.6,7.5-5.3,11.2-7.9c0.3-0.2,0.7-0.5,1-0.7c3.9-2.7,7.8-5.4,11.7-8c0.1-0.1,0.2-0.1,0.3-0.2
	c4-2.7,8.1-5.4,12.1-8c0.1-0.1,0.2-0.2,0.4-0.2c4-2.6,7.9-5.1,11.9-7.7c0.3-0.2,0.7-0.4,1-0.7c3.8-2.4,7.7-4.8,11.6-7.2
	c0.5-0.3,1-0.6,1.4-0.9c3.8-2.3,7.6-4.6,11.4-6.9c0.5-0.3,1.1-0.7,1.6-1c3.8-2.3,7.6-4.5,11.5-6.7c0.6-0.3,1.1-0.6,1.7-1
	c3.8-2.2,7.7-4.4,11.6-6.6c0.5-0.3,1-0.6,1.6-0.9c3.9-2.2,7.9-4.4,11.8-6.5c0.4-0.2,0.9-0.5,1.3-0.7c4.1-2.2,8.2-4.4,12.3-6.5
	c0.2-0.1,0.5-0.2,0.7-0.4c8.6-4.5,17.2-8.8,25.8-13.1c0.3-0.1,0.5-0.3,0.8-0.4c4.1-2,8.3-4,12.5-6c0.4-0.2,0.9-0.4,1.3-0.6
	c4.1-1.9,8.1-3.8,12.2-5.7c0.6-0.3,1.1-0.5,1.7-0.8c4-1.8,8.1-3.6,12.1-5.4c0.6-0.3,1.2-0.5,1.8-0.8c4-1.8,8.1-3.5,12.2-5.2
	c0.6-0.2,1.2-0.5,1.8-0.7c4.1-1.7,8.2-3.4,12.4-5.1c0.5-0.2,1-0.4,1.6-0.6c4.2-1.7,8.4-3.4,12.7-5c0.4-0.1,0.8-0.3,1.1-0.4
	c4.4-1.7,8.8-3.4,13.2-5c0.1,0,0.3-0.1,0.4-0.1c4.5-1.7,9-3.3,13.6-5c0.1,0,0.3-0.1,0.4-0.1c4.4-1.6,8.9-3.1,13.3-4.7
	c0.4-0.1,0.8-0.3,1.2-0.4c4.3-1.5,8.6-2.9,12.9-4.3c0.6-0.2,1.1-0.4,1.7-0.5c4.2-1.4,8.5-2.7,12.7-4.1c0.6-0.2,1.3-0.4,1.9-0.6
	c4.2-1.3,8.5-2.6,12.7-3.9c0.6-0.2,1.3-0.4,1.9-0.6c4.3-1.3,8.5-2.5,12.8-3.7c0.6-0.2,1.2-0.3,1.8-0.5c4.3-1.2,8.7-2.4,13-3.6
	c0.5-0.1,1-0.3,1.5-0.4c4.5-1.2,9-2.4,13.4-3.5c0.3-0.1,0.6-0.2,0.9-0.2c1.1-0.3,2.3-0.6,3.5-0.8c-17.5,18.3-34.6,38.4-51.1,60.3
	c-76.8,101.7-140.9,240.1-187.1,402.9c-131.1-23.3-249.5-55.5-345.9-94.3C409.1,549,409.3,548.7,409.5,548.4z M1543.2,181.5
	c4.5,1.1,9,2.3,13.5,3.5c0.5,0.1,1,0.3,1.5,0.4c4.4,1.2,8.7,2.4,13,3.6c0.6,0.2,1.2,0.3,1.8,0.5c4.3,1.2,8.5,2.5,12.8,3.7
	c0.6,0.2,1.3,0.4,1.9,0.6c4.2,1.3,8.5,2.6,12.7,3.9c0.6,0.2,1.2,0.4,1.9,0.6c4.3,1.3,8.5,2.7,12.8,4.1c0.5,0.2,1.1,0.4,1.6,0.5
	c4.3,1.4,8.6,2.9,13,4.3c0.4,0.1,0.8,0.3,1.2,0.4c4.5,1.5,8.9,3.1,13.4,4.7c0.1,0,0.3,0.1,0.4,0.1c4.6,1.6,9.1,3.3,13.7,5
	c0.1,0,0.2,0.1,0.3,0.1c4.4,1.7,8.9,3.3,13.3,5.1c0.4,0.1,0.7,0.3,1.1,0.4c4.3,1.7,8.5,3.3,12.7,5.1c0.5,0.2,1,0.4,1.5,0.6
	c4.1,1.7,8.3,3.4,12.4,5.1c0.6,0.2,1.1,0.5,1.7,0.7c4.1,1.7,8.1,3.5,12.2,5.2c0.6,0.3,1.2,0.5,1.8,0.8c4.1,1.8,8.1,3.6,12.2,5.4
	c0.5,0.2,1.1,0.5,1.6,0.7c4.1,1.9,8.2,3.8,12.3,5.7c0.4,0.2,0.9,0.4,1.3,0.6c4.2,2,8.4,4,12.5,6c0.2,0.1,0.5,0.2,0.7,0.4
	c8.7,4.2,17.3,8.6,25.9,13.1c0.2,0.1,0.5,0.2,0.7,0.4c4.1,2.2,8.2,4.3,12.3,6.5c0.4,0.2,0.8,0.4,1.2,0.7c4,2.1,7.9,4.3,11.9,6.5
	c0.5,0.3,1,0.6,1.6,0.9c3.9,2.2,7.7,4.4,11.6,6.6c0.6,0.3,1.1,0.6,1.7,1c3.8,2.2,7.7,4.5,11.5,6.7c0.5,0.3,1.1,0.6,1.6,1
	c3.8,2.3,7.7,4.6,11.5,6.9c0.5,0.3,0.9,0.6,1.4,0.9c3.9,2.4,7.8,4.8,11.6,7.2c0.3,0.2,0.7,0.4,1,0.6c4,2.5,8,5.1,11.9,7.7
	c0.1,0.1,0.2,0.1,0.3,0.2c4.1,2.7,8.1,5.3,12.1,8c0.1,0.1,0.2,0.1,0.3,0.2c3.9,2.6,7.8,5.3,11.8,8c0.3,0.2,0.6,0.4,1,0.7
	c3.8,2.6,7.5,5.2,11.2,7.9c0.5,0.3,0.9,0.7,1.4,1c3.6,2.6,7.3,5.2,10.9,7.9c0.5,0.4,1,0.8,1.6,1.1c3.6,2.6,7.1,5.3,10.7,7.9
	c0.5,0.4,1.1,0.8,1.6,1.2c3.5,2.7,7.1,5.4,10.6,8.1c0.5,0.4,1,0.8,1.5,1.2c3.6,2.8,7.1,5.6,10.6,8.4c0.4,0.3,0.8,0.7,1.2,1
	c3.6,2.9,7.2,5.8,10.8,8.7c0.2,0.2,0.5,0.4,0.7,0.6c7.5,6.2,14.9,12.4,22.2,18.8c0.2,0.2,0.5,0.4,0.7,0.6c3.5,3.1,7,6.1,10.5,9.2
	c0.4,0.3,0.8,0.7,1.2,1c3.4,3,6.7,6.1,10.1,9.1c0.5,0.4,1,0.9,1.4,1.3c3.3,3,6.6,6.1,9.8,9.1c0.5,0.5,1,1,1.5,1.4
	c3.2,3.1,6.5,6.1,9.7,9.2c0.5,0.5,1,1,1.5,1.4c3.2,3.1,6.4,6.3,9.6,9.5c0.4,0.4,0.9,0.9,1.3,1.3c3.2,3.2,6.5,6.5,9.7,9.8
	c0.3,0.3,0.7,0.7,1,1c3.3,3.4,6.6,6.8,9.9,10.3c0.1,0.2,0.3,0.3,0.4,0.5c3.3,3.5,6.7,7.1,10,10.6c0.1,0.1,0.2,0.3,0.4,0.4
	c3.2,3.5,6.5,7.1,9.7,10.6c0.3,0.3,0.6,0.7,0.9,1c3.1,3.4,6.2,6.9,9.2,10.4c0.4,0.5,0.8,0.9,1.2,1.4c3,3.4,6,6.9,8.9,10.3
	c0.5,0.5,0.9,1.1,1.4,1.6c2.9,3.4,5.8,6.9,8.7,10.4c0.2,0.3,0.5,0.5,0.7,0.8c-96.4,38.8-214.8,71-345.9,94.3
	c-46.2-162.8-110.4-301.2-187.1-402.9c-16.5-21.9-33.6-42-51.1-60.3c1.2,0.3,2.3,0.6,3.5,0.9
	C1542.6,181.3,1542.9,181.4,1543.2,181.5z M1857.1,1205.5c-1.8-80.9-7.3-161.1-16.6-239c-9.3-78.1-22.4-154.1-38.9-226.7
	c55.4-10,108.7-21.5,159.4-34.5c83.1-21.3,158.1-46.3,223.6-74.5c117.4,170.6,183.9,367.6,194.1,574.8h-521.6V1205.5z M1315.4,153.1
	c84,20.3,151.4,88.6,195.6,147.2c67.7,89.7,125.1,212.8,167.6,358.8c-18.2,2.5-36.5,4.8-55,7c-99.4,11.6-202.9,18.2-308.2,19.8
	L1315.4,153.1L1315.4,153.1z M1216.4,153.1v532.6c-105.3-1.6-208.8-8.2-308.2-19.8c-18.5-2.1-36.9-4.5-55-7
	c42.5-146,99.9-269,167.6-358.8C1065.1,241.7,1132.4,173.4,1216.4,153.1z M896.8,764.3c103.1,12,210.4,18.8,319.6,20.4v420.8H773.7
	c3.6-156.6,22.2-310.7,54.4-450.1C850.7,758.6,873.7,761.6,896.8,764.3z M1216.4,1304.4v431.3c-109.3,1.6-216.8,8.5-320,20.5
	c-23.2,2.7-46.2,5.7-68.8,8.8c-32.8-142.7-51.4-300.5-54.2-460.6H1216.4z M907.9,1854.5c99.5-11.6,203.1-18.2,308.6-19.8v534.9
	c-84.2-20.3-151.7-88.9-196-147.8c-67.9-90.1-125.3-213.7-167.8-360.3C870.8,1859,889.3,1856.6,907.9,1854.5z M1315.4,2369.5v-534.9
	c105.5,1.6,209.1,8.2,308.6,19.8c18.6,2.2,37,4.5,55.2,7c-42.5,146.6-99.9,270.2-167.8,360.3
	C1467.1,2280.6,1399.6,2349.2,1315.4,2369.5z M1635.4,1756.2c-103.3-12-210.7-18.9-320-20.5v-431.3h443
	c-2.8,160.1-21.4,317.9-54.2,460.6C1681.5,1761.8,1658.6,1758.9,1635.4,1756.2z M1315.4,1205.5V784.7
	c109.2-1.6,216.5-8.4,319.6-20.4c23.2-2.7,46.1-5.6,68.7-8.8c32.2,139.4,50.9,293.5,54.4,450.1L1315.4,1205.5L1315.4,1205.5z
	 M570.8,705.3c50.7,13,104,24.5,159.4,34.5c-16.5,72.6-29.6,148.7-38.9,226.7c-9.3,77.9-14.8,158.1-16.6,239H153.1
	c10.1-207.1,76.7-404.2,194.1-574.8C412.7,658.9,487.7,683.9,570.8,705.3z M674.5,1304.4c1.4,83.7,6.9,166.8,16.3,247.4
	c9.2,78.8,22.3,155.6,38.9,228.8c-55.6,10-109.1,21.6-159.9,34.7c-83.2,21.4-158.3,46.5-223.8,74.7
	c-119.1-173.7-185.5-374.7-193.5-585.7L674.5,1304.4L674.5,1304.4z M1962,1815.4c-50.9-13.1-104.4-24.7-160-34.7
	c16.6-73.3,29.7-150.1,38.9-228.8c9.5-80.7,14.9-163.7,16.3-247.4h521.9c-8,211-74.3,412-193.5,585.7
	C2120.3,1861.9,2045.2,1836.8,1962,1815.4z"/>
</svg>
